<?xml version="1.0" encoding="UTF-8"?>
<svg id="Calque_2" data-name="Calque 2" xmlns="http://www.w3.org/2000/svg" viewBox="0 0 19.16 16.6">
  <defs>
    <style>
      .cls-1 {
        fill: #575751;
      }
    </style>
  </defs>
  <g id="Calque_1-2" data-name="Calque 1">
    <path class="cls-1" d="m16.6,2.55c.7,0,1.31.25,1.81.75.5.5.75,1.1.75,1.81v8.94c0,.71-.25,1.31-.75,1.81-.5.5-1.1.75-1.81.75H2.55c-.71,0-1.31-.25-1.81-.75-.5-.5-.75-1.1-.75-1.81V5.11c0-.7.25-1.31.75-1.81.5-.5,1.1-.75,1.81-.75h2.23l.51-1.36c.13-.33.36-.61.69-.84.34-.24.68-.35,1.03-.35h5.11c.35,0,.7.12,1.03.35.34.24.57.52.69.84l.51,1.36h2.23ZM6.42,12.74c.87.87,1.93,1.31,3.16,1.31s2.28-.44,3.16-1.31,1.31-1.93,1.31-3.16-.44-2.28-1.31-3.16c-.87-.87-1.93-1.31-3.16-1.31s-2.28.44-3.16,1.31c-.87.87-1.31,1.93-1.31,3.16s.44,2.28,1.31,3.16Zm1.13-5.19c.56-.56,1.24-.84,2.03-.84s1.47.28,2.03.84c.56.56.84,1.24.84,2.03s-.28,1.47-.84,2.03-1.24.84-2.03.84-1.47-.28-2.03-.84c-.56-.56-.84-1.24-.84-2.03s.28-1.47.84-2.03Z"/>
  </g>
</svg>