<?xml version="1.0" encoding="UTF-8"?>
<svg id="Calque_2" data-name="Calque 2" xmlns="http://www.w3.org/2000/svg" viewBox="0 0 24.01 20.81">
  <defs>
    <style>
      .cls-1 {
        fill: #575751;
      }
    </style>
  </defs>
  <g id="Calque_1-2" data-name="Calque 1">
    <path class="cls-1" d="m24.01,2v16.81c0,.55-.2,1.02-.59,1.41-.39.39-.86.59-1.41.59H2c-.55,0-1.02-.2-1.41-.59s-.59-.86-.59-1.41V2C0,1.45.2.98.59.59s.86-.59,1.41-.59h20.01c.55,0,1.02.2,1.41.59.39.39.59.86.59,1.41ZM4.8,4v-1.6c0-.22-.08-.4-.24-.56-.16-.16-.35-.24-.56-.24h-1.6c-.22,0-.4.08-.56.24-.16.16-.24.35-.24.56v1.6c0,.22.08.4.24.56.16.16.35.24.56.24h1.6c.22,0,.4-.08.56-.24.16-.16.24-.35.24-.56Zm0,4.8v-1.6c0-.22-.08-.4-.24-.56-.16-.16-.35-.24-.56-.24h-1.6c-.22,0-.4.08-.56.24-.16.16-.24.35-.24.56v1.6c0,.22.08.4.24.56.16.16.35.24.56.24h1.6c.22,0,.4-.08.56-.24.16-.16.24-.35.24-.56Zm0,4.8v-1.6c0-.22-.08-.4-.24-.56-.16-.16-.35-.24-.56-.24h-1.6c-.22,0-.4.08-.56.24-.16.16-.24.35-.24.56v1.6c0,.22.08.4.24.56.16.16.35.24.56.24h1.6c.22,0,.4-.08.56-.24.16-.16.24-.35.24-.56Zm0,4.8v-1.6c0-.22-.08-.4-.24-.56-.16-.16-.35-.24-.56-.24h-1.6c-.22,0-.4.08-.56.24-.16.16-.24.35-.24.56v1.6c0,.22.08.4.24.56.16.16.35.24.56.24h1.6c.22,0,.4-.08.56-.24.16-.16.24-.35.24-.56Zm12.81-9.61V2.4c0-.22-.08-.4-.24-.56-.16-.16-.35-.24-.56-.24H7.2c-.22,0-.4.08-.56.24-.16.16-.24.35-.24.56v6.4c0,.22.08.4.24.56.16.16.35.24.56.24h9.61c.22,0,.4-.08.56-.24.16-.16.24-.35.24-.56Zm0,9.61v-6.4c0-.22-.08-.4-.24-.56-.16-.16-.35-.24-.56-.24H7.2c-.22,0-.4.08-.56.24-.16.16-.24.35-.24.56v6.4c0,.22.08.4.24.56.16.16.35.24.56.24h9.61c.22,0,.4-.08.56-.24.16-.16.24-.35.24-.56Zm4.8-14.41v-1.6c0-.22-.08-.4-.24-.56-.16-.16-.35-.24-.56-.24h-1.6c-.22,0-.4.08-.56.24-.16.16-.24.35-.24.56v1.6c0,.22.08.4.24.56.16.16.35.24.56.24h1.6c.22,0,.4-.08.56-.24.16-.16.24-.35.24-.56Zm0,4.8v-1.6c0-.22-.08-.4-.24-.56-.16-.16-.35-.24-.56-.24h-1.6c-.22,0-.4.08-.56.24-.16.16-.24.35-.24.56v1.6c0,.22.08.4.24.56.16.16.35.24.56.24h1.6c.22,0,.4-.08.56-.24.16-.16.24-.35.24-.56Zm0,4.8v-1.6c0-.22-.08-.4-.24-.56-.16-.16-.35-.24-.56-.24h-1.6c-.22,0-.4.08-.56.24-.16.16-.24.35-.24.56v1.6c0,.22.08.4.24.56.16.16.35.24.56.24h1.6c.22,0,.4-.08.56-.24.16-.16.24-.35.24-.56Zm0,4.8v-1.6c0-.22-.08-.4-.24-.56-.16-.16-.35-.24-.56-.24h-1.6c-.22,0-.4.08-.56.24-.16.16-.24.35-.24.56v1.6c0,.22.08.4.24.56.16.16.35.24.56.24h1.6c.22,0,.4-.08.56-.24.16-.16.24-.35.24-.56Z"/>
  </g>
</svg>