<?xml version="1.0" encoding="UTF-8"?>
<svg id="Calque_2" data-name="Calque 2" xmlns="http://www.w3.org/2000/svg" viewBox="0 0 44.21 36.35">
  <defs>
    <style>
      .cls-1 {
        fill: #bead93;
      }

      .cls-2 {
        fill: #fef8d1;
      }

      .cls-3 {
        fill: #5b9549;
      }

      .cls-4 {
        fill: #e5c02c;
      }

      .cls-5 {
        fill: #c3a535;
      }

      .cls-6 {
        fill: #f6ce24;
      }
    </style>
  </defs>
  <g id="Calque_1-2" data-name="Calque 1">
    <g>
      <polygon class="cls-1" points="10.19 3 9.47 6.7 9.43 6.9 8.7 10.6 7.6 16.26 7.18 18.4 4.65 17.9 4.42 19.08 4 21.23 3.54 23.59 3.12 25.74 2.89 26.91 1.82 26.7 1.51 28.29 42.72 36.35 43.03 34.77 41.96 34.56 42.19 33.38 42.61 31.24 43.07 28.88 43.49 26.73 43.72 25.55 41.2 25.06 41.62 22.92 42.72 17.25 43.45 13.55 43.49 13.35 44.21 9.65 41.79 9.18 41.06 12.88 36.75 12.04 35.99 15.94 31.8 15.12 32.57 11.22 29.39 10.59 30.11 6.89 24.29 5.76 23.57 9.46 20.39 8.83 19.62 12.73 15.44 11.91 16.2 8.01 11.89 7.17 12.62 3.47 10.19 3"/>
      <g>
        <rect class="cls-2" x="1.89" y="18.64" width="39.81" height="9.18" transform="translate(4.87 -3.75) rotate(11.07)"/>
        <rect class="cls-5" x="-.24" y="27.73" width="42" height="1.61" transform="translate(5.87 -3.46) rotate(11.07)"/>
        <g>
          <rect class="cls-6" x="6.11" y="10.86" width="34.67" height="7.95" transform="translate(3.28 -4.23) rotate(11.07)"/>
          <rect class="cls-4" x="21.99" y="10.86" width="2.91" height="7.95" transform="translate(3.28 -4.23) rotate(11.07)"/>
          <rect class="cls-4" x="6.41" y="7.81" width="2.91" height="7.95" transform="translate(2.41 -1.29) rotate(11.07)"/>
          <rect class="cls-4" x="37.57" y="13.9" width="2.91" height="7.95" transform="translate(4.16 -7.16) rotate(11.07)"/>
          <rect class="cls-4" x="5.56" y="16.57" width="34.67" height="2.18" transform="translate(3.82 -4.07) rotate(11.07)"/>
          <rect class="cls-6" x="7.51" y="4.32" width="6.86" height="3.97" transform="translate(1.42 -1.98) rotate(11.07)"/>
          <rect class="cls-6" x="8.28" y=".2" width="2.47" height="3.97" transform="translate(.6 -1.79) rotate(11.07)"/>
          <rect class="cls-6" x="34.8" y="9.66" width="6.86" height="3.97" transform="translate(73.51 30.42) rotate(-168.93)"/>
          <rect class="cls-6" x="18.38" y="6.99" width="12.41" height="3.97" transform="translate(46.99 22.51) rotate(-168.93)"/>
          <rect class="cls-6" x="22.35" y="3.29" width="5.93" height="3.97" transform="translate(49.14 15.32) rotate(-168.93)"/>
          <rect class="cls-6" x="39.87" y="6.38" width="2.47" height="3.97" transform="translate(79.85 24.48) rotate(-168.93)"/>
        </g>
        <rect class="cls-6" x="19.4" y="20.84" width="4.8" height="4.8" transform="translate(28.91 -7.82) rotate(56.07)"/>
        <rect class="cls-3" x="20.95" y="22.39" width="1.7" height="1.7" transform="translate(28.91 -7.82) rotate(56.07)"/>
        <g>
          <polygon class="cls-6" points="1.61 22.74 2.91 16.08 5.59 20.06 1.61 22.74"/>
          <polygon class="cls-6" points="41.99 23.73 40.68 30.39 38.01 26.41 41.99 23.73"/>
        </g>
        <polygon class="cls-3" points="2.03 20.59 2.49 18.23 3.44 19.64 2.03 20.59"/>
        <polygon class="cls-3" points="41.1 28.24 40.15 26.83 41.57 25.88 41.1 28.24"/>
      </g>
    </g>
  </g>
</svg>