<?xml version="1.0" encoding="UTF-8"?>
<svg id="Calque_2" data-name="Calque 2" xmlns="http://www.w3.org/2000/svg" viewBox="0 0 27.09 39.99">
  <defs>
    <style>
      .cls-1 {
        fill: #bead93;
      }

      .cls-2 {
        fill: #020303;
      }

      .cls-3 {
        fill: #fbd405;
      }

      .cls-4 {
        fill: #e62d3c;
      }

      .cls-5 {
        fill: #fcfcfc;
      }
    </style>
  </defs>
  <g id="Calque_1-2" data-name="Calque 1">
    <g>
      <path class="cls-1" d="m27.06,5.23c0-.3.19-.75-.34-.85-.45-.08-.48.41-.66.52-.75.47-1.02,1.56-2.28,1.45-1.8-.16-3.63,0-5.45.03-.42-.03-.84-.06-1.26-.09-.26-.02-.65.04-.67-.29-.04-.88-.65-.66-1.16-.69-.53-.03-1.48.09-1.54-.09-.49-1.44-1.64-.67-2.48-.86-.27-.06-.7.1-.7-.37-.01-.77-.55-.57-.98-.58-1.94,0-3.88-.01-5.82,0-.41,0-.87-.1-.97.54-.09.56-.59.44-.94.39-.88-.12-1.13.21-1.12,1.09.04,6.48.03,12.97.03,19.45.32.01.63.03.95.04-.32-.01-.63-.03-.95-.04,0,4.67,0,9.34,0,14.02,0,.68-.02,1.31.97,1.03.79.2,1.09-.04,1.08-.91-.03-4.7,0-9.4,0-14.1-.1-.75.2-1.02.97-1,1.94.05,3.87.01,5.81.01.29.05.8-.13.84.17.15,1.22,1.06.66,1.67.79.43.09,1.14-.24,1.24.25.2.99.87.64,1.42.71.52.07,1.37-.27,1.5.19.4,1.42,1.36.68,2.12.74,2.09.2,4.19.04,6.28.08.3,0,.48-.07.55-.43.14-.72.9-1.23,1.32-1.43.68-.32.59-.68.59-1.14,0-3.38,0-6.75,0-10.13,0-2.83,0-5.67-.01-8.5Z"/>
      <g>
        <path class="cls-3" d="m17.62,23.35c-.76-.08-1.74.64-2.13-.77-.12-.43-.99-.11-1.51-.18-.52-.06-1.14.23-1.31-.68-.1-.51-.74-.18-1.12-.29-.65-.19-1.68.55-1.88-.8-.04-.29-.57-.09-.84-.22,0-6.78,0-13.55,0-20.33.3-.03.79-.2.83.12.14,1.15.97.69,1.57.79.61.09,1.4-.36,1.61.77.07.39.77.11,1.17.19.62.12,1.39-.38,1.75.76.18.56,1.22.06,1.84.29,0,6.79,0,13.57,0,20.36Z"/>
        <path class="cls-2" d="m8.83.08c0,6.78,0,13.55,0,20.33-1.96.03-3.92.09-5.87.07-.73,0-1.09.17-.97.95-.35.02-.71.05-1.06.07l-.89-.06C.03,14.94.03,8.43,0,1.92c0-.76.19-1.07.97-.96.52.07,1.02.09,1.04-.68C2.02-.03,2.34,0,2.56,0c2.09.03,4.18.05,6.27.08Z"/>
        <path class="cls-4" d="m17.62,23.35c0-6.79,0-13.57,0-20.36,1.82-.2,3.65-.16,5.45-.05,1.28.08,1.62-.93,2.28-1.54.21-.2.3-.47.65-.44.48.05.36.44.36.71,0,2.6,0,5.2,0,7.8,0,3.65,0,7.3,0,10.94,0,.44.2.91-.6,1.12-.44.11-1.07.84-1.21,1.23-.25.71-.61.68-1.1.66-1.94-.05-3.88.12-5.81-.09Z"/>
        <path class="cls-5" d="m.92,21.51c.35-.02.71-.05,1.06-.07,0,4.76,0,9.52.04,14.27,0,.89-.4.96-1.07.8,0-5-.02-10-.03-15Z"/>
      </g>
    </g>
  </g>
</svg>