<?xml version="1.0" encoding="UTF-8"?>
<svg id="Calque_2" data-name="Calque 2" xmlns="http://www.w3.org/2000/svg" viewBox="0 0 26.94 39.55">
  <defs>
    <style>
      .cls-1 {
        fill: #bead93;
      }

      .cls-2 {
        fill: #c4cbc8;
      }

      .cls-3 {
        fill: #23305e;
      }

      .cls-4 {
        fill: #d11c31;
      }

      .cls-5 {
        fill: #fcfcfc;
      }
    </style>
  </defs>
  <g id="Calque_1-2" data-name="Calque 1">
    <g>
      <path class="cls-1" d="m26.91,4.79c0-.3.19-.75-.34-.85-.45-.08-.48.41-.66.52-.75.47-1.02,1.56-2.28,1.45-1.8-.16-3.63,0-5.45.03-.42-.03-.84-.06-1.26-.09-.26-.02-.65.04-.67-.29-.04-.88-.65-.66-1.16-.69-.53-.03-1.48.09-1.54-.09-.49-1.44-1.64-.67-2.48-.86-.27-.06-.7.1-.7-.37-.01-.77-.55-.57-.98-.58-1.94,0-3.88-.01-5.82,0-.41,0-.87-.1-.97.54-.09.56-.59.44-.94.39-.88-.12-1.13.21-1.12,1.09.04,6.48.03,12.97.03,19.45.32.01.63.03.95.04-.32-.01-.63-.03-.95-.04,0,4.67,0,9.34,0,14.02,0,.68-.02,1.31.97,1.03.79.2,1.09-.04,1.08-.91-.03-4.7,0-9.4,0-14.1-.1-.75.2-1.02.97-1,1.94.05,3.87.01,5.81.01.29.05.8-.13.84.17.15,1.22,1.06.66,1.67.79.43.09,1.14-.24,1.24.25.2.99.87.64,1.42.71.52.07,1.37-.27,1.5.19.4,1.42,1.36.68,2.12.74,2.09.2,4.19.04,6.28.08.3,0,.48-.07.55-.43.14-.72.9-1.23,1.32-1.43.68-.32.59-.68.59-1.14,0-3.38,0-6.75,0-10.13,0-2.83,0-5.67-.01-8.5Z"/>
      <g>
        <path class="cls-4" d="m14.69,22.57c-.81-.04-1.86.57-2.19-.83-.02-.09-.5-.08-.77-.11,0-2.6-.03-5.2.01-7.8.01-.75-.17-1.06-.96-.98-.32.03-.93.26-.96-.3-.04-.76-.48-.65-.94-.65-1.98,0-3.96.03-5.94-.02-.79-.02-1.08.22-.88.99l.03-.02c-.67.01-1.34.03-2.01.04,0-.99-.02-1.98-.03-2.97.77-.17,2.06.7,2.06-1.03,2.24.01,4.49.02,6.73.05.33,0,.87-.24.94.36.13,1.09.94.54,1.43.58.79.06.5-.63.5-1.02.03-2.55.02-5.11.02-7.66.47-.02.85-.17,1.09.58.26.8,1.21.15,1.82.37,0,.07.03.14.07.2,0,2.51,0,5.01,0,7.52-.04.33-.19.67.12.95l.48.05c.1.03.19.06.29.08.04.25.08.5.12.76.12.32.36.19.57.15.17,0,.35,0,.52,0l.08.04.08-.04c2.28,0,4.55,0,6.83,0,.3.04.66.2.59-.36.02-.17.05-.35.07-.52l-.02.02c.32-.15.92.15.94-.41.03-.78.55-.57.97-.62,0,.97-.02,1.93-.03,2.9-.79-.15-1.04.22-.93.95l.02-.02c-.37.13-1.02-.2-.98.61.02.5-.37.41-.66.41-2.48,0-4.95,0-7.43,0-.28,0-.68.11-.7-.37-.01-.43-.15-.68-.61-.59-.52.1-.35.54-.35.84-.01,2.63,0,5.26,0,7.89Z"/>
        <path class="cls-3" d="m15.7,3.07c2.88,0,5.77,0,8.65,0,.04.31.08.62.12.93-.62-.01-1.24-.02-.95.92-.35.17-1.03-.19-1.05.33-.03.72-.58.62-.92.86-.04.31-.07.61-.11.92-.34-.01-.69,0-1.03-.05-.83-.13-.99.29-.84.98-.73.23-2-.71-2.07.96-.71-.12-1.06.13-.9.89-.1.04-.2.08-.3.12-.44,0-.68-.14-.67-.67.05-2.07.05-4.13.07-6.2Z"/>
        <path class="cls-3" d="m.02,8.93c0-1.64,0-3.28,0-4.92.3,0,.62-.04.91.03.84.18,1.2-.14,1.14-.98.94,0,1.87,0,2.81,0-.06.67.02,1.19.91.96.1,1.1.95,1.85,2.1,1.86,0,.14,0,.29,0,.43-.02.03-.06.06-.06.08,0,.06.04.13.06.19.02.8.65.27.96.44.08.73-.21.98-.98.95-1.7-.06-3.41-.01-5.11-.02-.47,0-.89,0-.73.66-.6.52-1.33.23-2.01.32Z"/>
        <path class="cls-3" d="m.03,18.73c0-1.65,0-3.3,0-4.94.3,0,.62-.04.9.02.83.19,1.18-.15,1.16-.96l-.03.02c1.94,0,3.87.04,5.81-.02.76-.02,1.06.21.97.95-.31.17-.94-.35-.96.44-.09.16-.13.39-.27.47-.83.47-1.54,1.01-1.63,2.05-.8-.15-1.26.08-1.1,1-.93-.03-1.86-.11-2.79.05-.32.23-.05.63-.24.9-.61,0-1.22.01-1.82.02Z"/>
        <path class="cls-3" d="m26.33,13.82c0,1.62,0,3.25,0,4.87-.77-.14-1.08.17-.93.94l.02-.02c-.56.05-1.19,0-.99.89-.08,0-.14.02-.2.08-.93.07-1.86.14-2.8.21.22-.81-.01-1.27-.94-1.16.21-.83-.18-1.06-.93-.93.11-.73-.07-1.17-.93-.93-.17-.31.28-.89-.42-.98-.37-.05-.57-.29-.64-.64.47-.64,1.15-.19,1.71-.33,1.85-.43,3.95.92,5.67-.94.38-.42.34-.72.46-1.09l-.02.02c.31,0,.62.01.94.02Z"/>
        <path class="cls-5" d="m4.9,20.68q-2.87.02-2.87,2.9c0,4.03-.02,8.06.02,12.09,0,.89-.21,1.25-1.12.95,0-4.61,0-9.22,0-13.83,0-.62.03-1.21-.86-1.12.01-.32.03-.63.04-.95.33,0,.65,0,.98,0,.08,0,.16,0,.24,0,.23-.06.47-.11.7-.17.01-.27.02-.53.04-.8.94-.04,1.88-.09,2.82-.13,0,.36,0,.71,0,1.07Z"/>
        <path class="cls-3" d="m4.9,20.68c0-.36,0-.71,0-1.07,0,0-.02.02-.02.02.91.26,1.04-.23.93-.96.31-.01.62-.02.94-.03.39-.22.1-.62.24-.91.75.16,1.01-.17.88-.89h.07s0-.09,0-.09c.71.14,1.04-.1.87-.86l.08-.04-.02-.09c.69.15,1.07-.04.91-.83.83-.15,1.02.22,1,1.01-.06,1.89-.02,3.79-.02,5.69-.26-.02-.74.02-.76-.06-.37-1.43-1.51-.78-2.33-.86-.91-.09-1.84-.04-2.76-.04Z"/>
        <path class="cls-5" d="m25.41,13.78c-.12.37-.08.67-.46,1.09-1.72,1.86-3.82.51-5.67.94-.57.13-1.24-.31-1.71.32-.33.53-.62.7-.84-.08-.1-.35-.39-.44-.73-.4-.3.03-.35.2-.31.47.04.3-.21.71.38.73.62.03.37.54.46.87-.68-.09-.92.16-.89.89.05,1.34-.02,2.68-.04,4.02-.3-.02-.6-.04-.9-.06,0-2.63-.01-5.26,0-7.89,0-.31-.18-.75.35-.84.46-.09.6.17.61.59.02.48.42.36.7.37,2.48,0,4.95,0,7.43,0,.29,0,.68.09.66-.41-.04-.81.61-.48.98-.61Z"/>
        <path class="cls-3" d="m15.58,22.63c.02-1.34.1-2.68.04-4.02-.03-.73.21-.98.89-.89,0,0,.02.06.02.06h.06c-.13.68.06,1.08.86.9.13.92,1.21,1.99,2.12,2.1-.25.86.32.93.93.95l-.02-.02c0,.52-.09,1.11.77.89.05.04.11.05.17.04.02.31.03.61.05.92-1.62,0-3.25-.02-4.87.04-.76.03-1.07-.23-1.01-.97Z"/>
        <path class="cls-3" d="m4.91.13c1.11,0,2.23-.04,3.34,0,.65.02,1.51-.35,1.68.81.02.13.54.19.83.28,0,1.3-.06,2.61,0,3.91.04.79-.29,1.03-.99.98.27-1.17-.94-1.36-1.41-2.04-.37-.55-1.17-.88-1.42-1.51-.23-.58-.55-.39-.89-.41-.17-.27.04-.65-.24-.89-.27-.18-.58-.08-.87-.08.05-.08.03-.14-.05-.19,0-.28.01-.57.02-.85Z"/>
        <path class="cls-5" d="m15.7,3.07c-.02,2.07-.02,4.13-.07,6.2-.01.53.22.67.67.67.31.38.04,1.25.98,1.08.65-.12.3-.8.65-1.07.32,0,.64.02.96.03.06,0,.12,0,.17,0,.17-.05.34-.1.51-.15h0s-.07.08-.07.08l.03.09c-.09.69.17.93.9.91,1.34-.04,2.68.03,4.02.06-.02.17-.05.35-.07.52-.2.12-.39.24-.59.36-2.28,0-4.55,0-6.83,0-.05-.1-.11-.11-.17,0-.17,0-.35,0-.52,0-.16-.18-.37-.16-.57-.15-.04-.25-.08-.5-.12-.76-.07-.12-.16-.15-.29-.08-.16-.02-.32-.03-.48-.05.02-.33.14-.66-.12-.95,0-2.51,0-5.01,0-7.52.07-.07.13-.14.2-.2.84-.18.71.48.8.94Z"/>
        <path class="cls-5" d="m9.77,6.1c.7.05,1.03-.18.99-.98-.06-1.3-.01-2.61,0-3.91.33-.01.65-.02.98-.03,0,2.55,0,5.11-.02,7.66,0,.39.29,1.08-.5,1.02-.49-.04-1.3.52-1.43-.58-.07-.6-.61-.35-.94-.36-2.24-.03-4.49-.04-6.73-.05-.03-.09-.05-.18-.08-.27-.15-.66.27-.66.73-.66,1.7.01,3.41-.04,5.11.02.76.03,1.05-.22.98-.95,0,0-.01.01-.01.01.31,0,.62,0,.93,0,.12.31-.25.81.34.92.17.03.4.01.53-.08.21-.15.18-.44.09-.62-.22-.46-.64-.22-.98-.19.01-.32.02-.65.04-.97h-.01Z"/>
        <path class="cls-5" d="m10.75,21.65c0-1.9-.04-3.79.02-5.69.03-.8-.17-1.16-1-1.01l.02.02c.1-.72.03-1.32-.95-1.18h.01c.09-.73-.22-.96-.97-.94-1.93.06-3.87.02-5.81.02-.2-.77.09-1.01.88-.99,1.98.05,3.96.02,5.94.02.46,0,.9-.11.94.65.03.55.63.33.96.3.79-.07.97.24.96.98-.04,2.6-.01,5.2-.01,7.8-.33,0-.65.01-.98.02Z"/>
        <path class="cls-3" d="m24.46,10.96c-1.34-.03-2.68-.1-4.02-.06-.73.02-.98-.22-.9-.91.39-.03.78-.07,1.16-.1h.51c.12.11.17.06.18-.08.14-.3.11-.62.04-.93.31.05.62.11.92-.04.32-.23.08-.62.25-.9,1.03.2.94-1.21,1.81-1.25-.28-.92,1.01-.42.97-1.06-.05-.81.52-.56.93-.61,0,1.3,0,2.6.01,3.89-.69-.1-1.12.06-.91.88-.85-.04-1.27.27-.97,1.17l.02-.02Z"/>
        <path class="cls-2" d="m.08,21.67c.89-.09.87.5.86,1.12-.01,4.61,0,9.22,0,13.83-.51.09-.94.09-.93-.63.03-4.78.05-9.55.08-14.33Z"/>
        <path class="cls-5" d="m26.31,5.04c-.41.06-.98-.2-.93.61.04.64-1.25.14-.97,1.06-.87.04-.78,1.45-1.81,1.25-.04-.64.13-1.16.71-1.55.59-.39.77-.91.2-1.49-.29-.94.33-.93.95-.92h-.01c-.02.17-.05.36-.04.55,0,.28-.09.63.4.62.43,0,.61-.21.58-.63-.01-.19,0-.37,0-.56l-.02.02c.31.02.63.03.94.05,0,.33,0,.65-.01.98Z"/>
        <path class="cls-5" d="m4.91.13c0,.28-.01.57-.02.85-.31.03-.65-.09-.93.15-.41,0-.83.03-1.24.02-.41-.01-.76.02-.75.56-.03.12-.06.24-.1.37-.59,0-1.18,0-1.77.01-.03-.29-.15-.86.08-.82C1.66,1.5,2.43-.48,3.99.11c.27.1.61.02.92.02Z"/>
        <path class="cls-5" d="m21.47,23.56c-.02-.31-.03-.61-.05-.92,1.01,0,2.02,0,3.03,0h0c.09.71-.16,1.04-.93.96-.68-.07-1.36-.03-2.05-.04Z"/>
        <path class="cls-2" d="m2.03,8.61c.03.09.05.18.08.27,0,1.73-1.29.86-2.05,1.03-.01-.33-.02-.65-.03-.98.67-.09,1.4.21,2.01-.32Z"/>
        <path class="cls-4" d="m2.04,20.54c-.23.06-.47.11-.7.17-.08,0-.16,0-.24,0-.33,0-.65,0-.98,0-.01-.36-.02-.72-.03-1.08.59-.01,1.19-.02,1.78-.03.06.31.12.63.18.94Z"/>
        <path class="cls-4" d="m26.31,19.65c.09.39.11.76-.19,1.08-.73-.04-.79.43-.75.98v-.02c-.3,0-.61.01-.92.02,0-.31,0-.62,0-.93.94.1.95-.54.95-1.19,0,0-.02.02-.02.02.31,0,.62.02.93.02Z"/>
        <path class="cls-5" d="m2.08,3.05c.06.84-.3,1.16-1.14.98-.29-.06-.6-.02-.91-.03.02-.3.04-.59.06-.89.62,0,1.25,0,1.87,0,0,0,.08,0,.08,0l.04-.07h0Z"/>
        <path class="cls-5" d="m2.1,12.84c.02.81-.33,1.15-1.16.96-.29-.07-.6-.02-.9-.02.02-.3.03-.6.05-.9.67-.01,1.34-.03,2.01-.04Z"/>
        <path class="cls-5" d="m24.47,4c-.04-.31-.08-.62-.12-.93.01-.68.24-1.14,1.04-.95,0,.63,0,1.26-.01,1.89l.02-.02c-.32,0-.63,0-.95,0,0,0,.01.01.01.01Z"/>
        <path class="cls-5" d="m1.86,19.6c-.59.01-1.19.02-1.78.03-.02-.3-.04-.6-.06-.9.61,0,1.22-.01,1.82-.02,0,.3,0,.6.01.89Z"/>
        <path class="cls-4" d="m1.96,3.13c-.62,0-1.25,0-1.87,0,0-.35,0-.69,0-1.04.59,0,1.18,0,1.77-.01.03.35.06.71.09,1.06Z"/>
        <path class="cls-4" d="m25.38,4.01c0-.63,0-1.26.01-1.89,0,0,0,.02,0,.02l.93-.03c0,.65,0,1.3,0,1.95-.31-.02-.63-.03-.94-.05Z"/>
        <path class="cls-2" d="m24.44,10.99c-.31-.91.12-1.21.97-1.17.3-.01.61-.02.91-.03.03.06.04.12.03.18-.42.04-.94-.16-.97.62-.02.57-.62.26-.94.41Z"/>
        <path class="cls-5" d="m24.46,21.72c.31,0,.62-.01.94-.02.14.77-.23,1.03-.94.94h0c0-.31.02-.62.02-.92h-.02Z"/>
        <path class="cls-5" d="m26.31,19.65c-.31,0-.62-.02-.93-.02-.14-.76.17-1.08.93-.94,0,.32,0,.64,0,.96Z"/>
        <path class="cls-5" d="m26.32,2.11l-.93.03c.1-.35-.27-.95.47-.96.74-.01.45.55.47.93Z"/>
        <path class="cls-5" d="m26.33,13.82c-.31,0-.62-.01-.94-.02-.11-.73.14-1.1.93-.95,0,.32,0,.64,0,.96Z"/>
        <path class="cls-5" d="m26.32,9.78c-.3.01-.61.02-.91.03-.2-.82.23-.98.91-.88,0,.28,0,.57,0,.85Z"/>
        <path class="cls-5" d="m25.38,21.72c-.04-.55.02-1.02.75-.98q.32.86-.75.98Z"/>
        <path class="cls-2" d="m14.9,2.13c-.07.07-.13.14-.2.2-.05-.06-.07-.13-.07-.2.09,0,.18,0,.27,0Z"/>
        <path class="cls-2" d="m23.8,11.85c.2-.12.39-.24.59-.36.07.56-.3.4-.59.36Z"/>
        <path class="cls-2" d="m14.7,9.86c.26.29.14.63.12.95-.31-.28-.16-.63-.12-.95Z"/>
        <path class="cls-2" d="m15.71,11.7c.21,0,.42-.03.57.15-.22.04-.45.17-.57-.15Z"/>
        <path class="cls-2" d="m15.31,10.86c.12-.07.22-.04.29.08-.1-.03-.19-.06-.29-.08Z"/>
        <path class="cls-2" d="m16.8,11.84c.06-.11.12-.1.17,0,0,0-.09.04-.09.04l-.08-.04Z"/>
        <path class="cls-5" d="m21.43,8.9c.06.31.1.63-.04.93-.09-.02-.15,0-.18.08-.17,0-.34,0-.51,0-.37-.19-.75-.1-1.13-.06h0c-.02-.59-.04-1.14-.91-.74-.31.14-.68.02-.96-.22l-.22.03.02.02c.07-1.67,1.34-.73,2.07-.96h-.01c-.12.66.02,1.11.86.99.34-.05.68-.04,1.03-.05h0Z"/>
        <path class="cls-2" d="m23.52,4.92c.56.58.38,1.1-.2,1.49-.58.38-.75.91-.71,1.55-.16.28.08.66-.25.9,0-.28,0-.56,0-.84,0-.36.01-.73.02-1.09.04-.59-.23-.86-.83-.8.34-.24.89-.14.92-.86.02-.53.7-.16,1.05-.33Z"/>
        <path class="cls-5" d="m19.57,7.97c-.15-.69,0-1.11.84-.98.34.05.68.03,1.03.05,0,0-.01-.01-.01-.01,0,.32,0,.63,0,.95l.02-.02c-.63,0-1.25,0-1.88,0h.01Z"/>
        <path class="cls-2" d="m17.93,9.95c-.35.27,0,.95-.65,1.07-.94.17-.67-.7-.98-1.08.1-.04.2-.08.3-.12.28,0,.55.01.83.02.17.04.34.07.5.11Z"/>
        <path class="cls-5" d="m21.55,6.12c.59-.06.86.21.83.8-.32.04-.63.07-.95.11,0,0,.01.01.01.01.04-.31.07-.61.11-.92Z"/>
        <path class="cls-5" d="m17.43,9.84c-.28,0-.55-.01-.83-.02-.17-.77.19-1.01.9-.89,0,0-.02-.02-.02-.02.02.16.03.32.05.48-.03.15-.07.31-.1.46Z"/>
        <path class="cls-5" d="m6.05,2.14c.35.01.66-.17.89.41.25.63,1.05.96,1.42,1.51.46.68,1.68.87,1.41,2.04h.01c-.75-.13-1.15.1-.95.94h.01c-.31-.18-.94.34-.96-.46,0-.09,0-.18,0-.27,0-.14,0-.29,0-.43.08-.54.09-.98-.45-1.39-.58-.45-1.01-1.09-1.51-1.66,0-.15,0-.31,0-.46l.13-.23Z"/>
        <path class="cls-2" d="m5.93,2.83c.5.56.93,1.21,1.51,1.66.54.41.53.86.45,1.39-1.15,0-2-.76-2.1-1.86,0-.28.02-.56.03-.84.03-.12.07-.23.1-.35Z"/>
        <path class="cls-5" d="m4.89,3.06c-.94,0-1.87,0-2.81,0,0,0,0,.01,0,.01,0-.28,0-.55,0-.83.94-.22,1.88-.07,2.82-.09l-.02-.02c0,.32,0,.63,0,.95h.01Z"/>
        <path class="cls-5" d="m5.82,3.18c0,.28-.02.56-.03.84-.89.23-.97-.3-.91-.96,0,0-.01.01-.01.01l.95.1Z"/>
        <path class="cls-2" d="m7.89,6.31c0,.09,0,.18,0,.27-.02-.06-.05-.12-.06-.19,0-.02.04-.05.06-.08Z"/>
        <path class="cls-2" d="m6.99,17.73c-.14.29.15.69-.24.91.05-.75-.42-1.29-.76-1.88.09-1.05.8-1.59,1.63-2.05.13-.08.18-.31.27-.47-.11.79.74.97.98,1.54l.02.09s-.08.04-.08.04c-.65-.08-.95.19-.87.86v.08s-.07.01-.07.01c-.69-.09-.96.23-.88.89Z"/>
        <path class="cls-5" d="m2.09,17.81c.93-.16,1.86-.08,2.79-.05,0,0-.01-.01-.01-.01,0,.32,0,.63,0,.95l.02-.02c-.93,0-1.86-.01-2.78-.02,0-.28,0-.56-.01-.84Z"/>
        <path class="cls-5" d="m5.99,16.76c.34.59.8,1.14.76,1.88-.31.01-.62.02-.94.03l.02.02c.13-.76-.12-1.14-.95-.95,0,0,.01.01.01.01-.16-.92.3-1.14,1.1-1Z"/>
        <path class="cls-5" d="m8.86,15.77c-.24-.57-1.09-.75-.98-1.54.03-.79.65-.28.96-.44,0,0-.01-.01-.01-.01-.09.72-.14,1.4.95,1.18l-.02-.02c.17.79-.21.98-.91.83Z"/>
        <path class="cls-2" d="m2.09,17.81c0,.28,0,.56.01.84,0,.36-.02.73-.03,1.09-.01.27-.02.53-.04.8-.06-.31-.12-.63-.18-.94,0-.3,0-.6-.01-.89.19-.27-.08-.67.24-.9Z"/>
        <path class="cls-2" d="m19.58,20.78c-.91-.11-1.99-1.18-2.12-2.1-.03-.55.12-1.25-.86-.91h-.06s-.02-.05-.02-.05c-.09-.32.16-.84-.46-.87-.59-.03-.33-.44-.38-.73-.04-.28.01-.45.31-.47.33-.03.62.06.73.4.23.77.51.61.84.08.07.35.27.59.64.64-.51.09-.48.5-.52.87-.1.73-.33,1.58.96,1.05l-.02-.02c-.17.81.13,1.13.95.95l-.02-.02c0,.4,0,.79.01,1.19h0Z"/>
        <path class="cls-5" d="m21.43,20.79c.93-.07,1.86-.14,2.8-.21.05.43.05.84-.44,1.03-.33,0-.66,0-.99,0-.38-.22-.77-.13-1.16-.05-.24-.22-.07-.54-.19-.78h-.01Z"/>
        <path class="cls-5" d="m20.49,19.63c.92-.11,1.15.35.94,1.16,0,0,.01-.01.01-.01-.32,0-.64,0-.95,0l.02.03c0-.39,0-.79,0-1.18l-.02.02Z"/>
        <path class="cls-5" d="m25.41,19.6c0,.65-.01,1.29-.95,1.19-.01-.1-.03-.2-.04-.3-.21-.89.43-.85.99-.89Z"/>
        <path class="cls-5" d="m19.56,18.69c.75-.12,1.14.11.93.93,0,0,.02-.02.02-.02-.31,0-.63,0-.94,0l.02.02c0-.31,0-.63,0-.94h-.01Z"/>
        <path class="cls-5" d="m18.63,17.76c.86-.24,1.04.2.93.93h.01c-.31-.02-.63-.02-.94-.02l.02.02c0-.31,0-.63,0-.94h-.01Z"/>
        <path class="cls-5" d="m17.69,17.64c.04-.37,0-.78.52-.87.7.09.25.67.42.98,0,0,.01-.01.01-.01-.32-.03-.63-.07-.95-.1Z"/>
        <path class="cls-2" d="m24.42,20.49c.01.1.03.2.04.3,0,.31,0,.62,0,.93,0,0,.02,0,.02,0-.23-.03-.46-.07-.69-.1.49-.2.49-.6.44-1.03.05-.06.12-.08.2-.08Z"/>
        <path class="cls-4" d="m2.08,19.75c0-.36.02-.73.03-1.09.93,0,1.86.01,2.78.02,0,.32,0,.64-.01.96,0,0,.02-.02.02-.02-.94.04-1.88.09-2.82.13Z"/>
        <path class="cls-2" d="m1.1,20.72c.08,0,.16,0,.24,0-.08,0-.16,0-.24,0Z"/>
        <path class="cls-5" d="m4.88,19.63c0-.32,0-.64.01-.96,0,0-.02.02-.02.02.32,0,.64,0,.95,0l-.02-.02c.11.73-.02,1.22-.93.96Z"/>
        <path class="cls-5" d="m6.99,17.73c-.08-.66.19-.98.88-.89.13.72-.13,1.05-.88.89Z"/>
        <path class="cls-5" d="m7.93,16.75c-.08-.66.22-.94.87-.86.18.76-.16,1-.87.86Z"/>
        <path class="cls-4" d="m23.78,21.61c.23.03.46.07.69.1,0,.31-.02.62-.02.92-1.01,0-2.02,0-3.03,0-.06,0-.12,0-.17-.04.59-1.03-.09-.95-.77-.89l.02.02c0-.32-.02-.64-.02-.96.32,0,.64,0,.95,0,.12.25-.05.57.19.78.38.21.77.14,1.16.05.33,0,.66,0,.99,0Z"/>
        <path class="cls-5" d="m16.6,17.77c.97-.34.83.36.86.91-.8.18-.99-.22-.86-.91Z"/>
        <path class="cls-5" d="m20.49,20.77c0,.32.02.64.02.96-.61-.02-1.18-.08-.93-.95h0c.31.01.62.01.94.01l-.02-.03Z"/>
        <path class="cls-5" d="m20.49,21.7c.68-.07,1.36-.14.77.89-.86.22-.77-.37-.77-.89Z"/>
        <path class="cls-5" d="m4.94,1.17c.29,0,.59-.1.87.08,0,.28,0,.55-.01.83-.31.01-.62.03-.92.04,0,0,.02.02.02.02,0-.31,0-.63,0-.94,0,0,.05-.04.05-.04Z"/>
        <path class="cls-2" d="m5.79,2.08c0-.28,0-.55.01-.83.28.24.07.62.24.89-.04.08-.08.15-.13.23-.04-.1-.09-.19-.13-.29Z"/>
        <path class="cls-2" d="m3.96,1.12c.28-.23.62-.11.93-.15.08.05.1.11.05.19,0,0-.05.04-.05.04-.31-.03-.63-.05-.94-.08Z"/>
        <path class="cls-4" d="m17.43,9.84c.03-.15.07-.31.1-.46.06-.17.12-.34.17-.51.28.24.65.36.96.22.87-.4.89.15.91.74-.17.05-.34.1-.51.15,0,0-.09-.05-.09-.05l-.09.05c-.32,0-.64-.02-.96-.03-.17-.04-.34-.07-.5-.11Z"/>
        <path class="cls-2" d="m19.57,9.84c.38-.03.76-.13,1.13.06-.39.03-.78.07-1.16.1,0,0-.03-.09-.03-.09l.07-.07Z"/>
        <path class="cls-2" d="m18.9,9.98l.09-.05s.09.05.09.05c-.06,0-.12,0-.17,0Z"/>
        <path class="cls-4" d="m8.84,7.04c-.21-.84.19-1.07.95-.95-.01.32-.02.65-.04.97l.02-.02c-.31,0-.62,0-.93,0Z"/>
        <path class="cls-4" d="m9.75,7.06c.35-.03.76-.27.98.19.09.18.11.48-.09.62-.13.09-.36.11-.53.08-.59-.11-.22-.61-.34-.92,0,0-.02.02-.02.02Z"/>
        <path class="cls-4" d="m9.78,14.96c-1.09.22-1.04-.46-.95-1.18.98-.14,1.04.46.95,1.18Z"/>
        <path class="cls-5" d="m22.35,8.01c0,.28,0,.56,0,.84-.3.15-.61.09-.92.04h0v-.95s-.02.02-.02.02l.93.04Z"/>
        <path class="cls-2" d="m21.21,9.91c.04-.08.1-.1.18-.08-.01.13-.06.19-.18.08Z"/>
        <path class="cls-4" d="m24.46,3.99c.32,0,.63,0,.95,0,0,.19-.02.38,0,.56.03.42-.15.62-.58.63-.49,0-.4-.34-.4-.62,0-.19.03-.37.04-.56Z"/>
        <path class="cls-4" d="m3.96,1.12c.31.03.63.05.94.08,0,.31,0,.63,0,.94-.94.02-1.89-.13-2.82.09-.04-.18-.07-.35-.11-.53,0-.54.34-.57.75-.56.41.01.83-.01,1.24-.02Z"/>
        <path class="cls-2" d="m1.96,1.7c.04.18.07.35.11.53,0,.28,0,.55,0,.83,0,0-.04.07-.04.07,0,0-.08,0-.08,0-.03-.35-.06-.71-.09-1.06.03-.12.06-.24.1-.37Z"/>
        <path class="cls-4" d="m21.44,7.95v.95c-.34.01-.69,0-1.03.05-.83.12-.97-.32-.86-1,.63,0,1.25,0,1.88,0Z"/>
        <path class="cls-2" d="m17.71,8.88c-.06.17-.12.34-.17.51-.02-.16-.03-.32-.05-.48.07,0,.15-.02.22-.03Z"/>
        <path class="cls-4" d="m22.35,8.01l-.93-.04c0-.32,0-.63,0-.95.32-.04.63-.07.95-.11,0,.36-.01.73-.02,1.09Z"/>
        <path class="cls-4" d="m5.79,2.08c.04.1.09.19.13.29,0,.15,0,.31,0,.46-.03.12-.07.23-.1.35-.32-.03-.63-.07-.95-.1,0-.32,0-.63,0-.95.31-.01.62-.03.92-.04Z"/>
        <path class="cls-4" d="m5.82,18.69c-.32,0-.64,0-.95,0,0-.32,0-.63,0-.95.83-.2,1.08.19.95.95Z"/>
        <path class="cls-4" d="m20.51,20.79c-.31,0-.62,0-.94,0,0-.4,0-.79-.01-1.19.31,0,.63,0,.94,0,0,.39,0,.79,0,1.18Z"/>
        <path class="cls-4" d="m17.69,17.64c.32.03.63.07.95.1,0,.31,0,.63,0,.94-1.28.53-1.05-.31-.96-1.05Z"/>
        <path class="cls-4" d="m18.63,18.67c.31,0,.63,0,.94,0,0,.31,0,.63,0,.94-.81.18-1.12-.14-.95-.95Z"/>
        <path class="cls-2" d="m22.79,21.61c-.39.09-.78.16-1.16-.05.39-.08.78-.17,1.16.05Z"/>
      </g>
    </g>
  </g>
</svg>