<?xml version="1.0" encoding="UTF-8"?>
<svg id="Calque_2" data-name="Calque 2" xmlns="http://www.w3.org/2000/svg" viewBox="0 0 26.91 39.07">
  <defs>
    <style>
      .cls-1 {
        fill: #bead93;
      }

      .cls-2 {
        fill: #c4cbc8;
      }

      .cls-3 {
        fill: #e10f1a;
      }

      .cls-4 {
        fill: #256eb5;
      }

      .cls-5 {
        fill: #fcfcfc;
      }
    </style>
  </defs>
  <g id="Calque_1-2" data-name="Calque 1">
    <g>
      <path class="cls-1" d="m26.87,4.31c0-.3.19-.75-.34-.85-.45-.08-.48.41-.66.52-.75.47-1.02,1.56-2.28,1.45-1.8-.16-3.63,0-5.45.03-.42-.03-.84-.06-1.26-.09-.26-.02-.65.04-.67-.29-.04-.88-.65-.66-1.16-.69-.53-.03-1.48.09-1.54-.09-.49-1.44-1.64-.67-2.48-.86-.27-.06-.7.1-.7-.37-.01-.77-.55-.57-.98-.58-1.94,0-3.88-.01-5.82,0-.41,0-.87-.1-.97.54-.09.56-.59.44-.94.39-.88-.12-1.13.21-1.12,1.09.04,6.48.03,12.97.03,19.45.32.01.63.03.95.04-.32-.01-.63-.03-.95-.04,0,4.67,0,9.34,0,14.02,0,.68-.02,1.31.97,1.03.79.2,1.09-.04,1.08-.91-.03-4.7,0-9.4,0-14.1-.1-.75.2-1.02.97-1,1.94.05,3.87.01,5.81.01.29.05.8-.13.84.17.15,1.22,1.06.66,1.67.79.43.09,1.14-.24,1.24.25.2.99.87.64,1.42.71.52.07,1.37-.27,1.5.19.4,1.42,1.36.68,2.12.74,2.09.2,4.19.04,6.28.08.3,0,.48-.07.55-.43.14-.72.9-1.23,1.32-1.43.68-.32.59-.68.59-1.14,0-3.38,0-6.75,0-10.13,0-2.83,0-5.67-.01-8.5Z"/>
      <g>
        <path class="cls-5" d="m8.87.01c.43.01.97-.19.98.58,0,.47.43.31.7.37.84.19,1.99-.58,2.48.86.06.18,1,.07,1.54.09.5.03,1.12-.19,1.16.69.01.33.41.27.67.29.42.03.84.06,1.26.09,0,6.79,0,13.58,0,20.38-.76-.05-1.72.68-2.12-.74-.13-.46-.98-.12-1.5-.19-.55-.08-1.22.27-1.42-.71-.1-.49-.81-.16-1.24-.25-.61-.13-1.52.44-1.67-.79-.04-.31-.55-.12-.84-.17,0-6.83,0-13.66,0-20.49Z"/>
        <path class="cls-4" d="m8.87.01c0,6.83,0,13.66,0,20.49-1.94,0-3.87.03-5.81-.01-.77-.02-1.07.26-.97,1-.37,0-.74,0-1.11.01-.32-.01-.63-.03-.95-.04C.03,14.99.04,8.5,0,2.02,0,1.15.24.81,1.12.93c.35.05.85.17.94-.39C2.18-.09,2.63,0,3.04,0c1.94,0,3.88,0,5.82,0Z"/>
        <path class="cls-3" d="m17.65,23.36c0-6.79,0-13.58,0-20.38,1.82-.03,3.65-.19,5.45-.03,1.26.11,1.53-.98,2.28-1.45.18-.12.21-.61.66-.52.53.1.34.54.34.85.02,2.83.01,5.67.01,8.5,0,3.38,0,6.75,0,10.13,0,.46.08.82-.59,1.14-.42.19-1.18.71-1.32,1.43-.07.36-.25.44-.55.43-2.09-.05-4.19.11-6.28-.08Z"/>
        <path class="cls-5" d="m.98,21.51c.37,0,.74,0,1.11-.01,0,4.7-.04,9.4,0,14.1,0,.87-.29,1.12-1.08.91,0-5-.01-10-.02-15Z"/>
        <path class="cls-2" d="m.98,21.51c0,5,.01,10,.02,15-.99.28-.97-.35-.97-1.03,0-4.67,0-9.34,0-14.02.32.01.63.03.95.04Z"/>
      </g>
    </g>
  </g>
</svg>