<?xml version="1.0" encoding="UTF-8"?>
<svg id="Calque_2" data-name="Calque 2" xmlns="http://www.w3.org/2000/svg" viewBox="0 0 17.47 22.33">
  <defs>
    <style>
      .cls-1 {
        fill: #575751;
      }
    </style>
  </defs>
  <g id="Calque_1-2" data-name="Calque 1">
    <path class="cls-1" d="m17.47,13.75c-.27.66-.58,1.24-.95,1.72-.37.48-.74.85-1.13,1.1-.39.25-.8.45-1.23.58-.43.13-.85.19-1.26.18s-.81-.05-1.2-.11c-.39-.06-.75-.15-1.08-.27-.33-.12-.62-.24-.87-.34-.25-.1-.44-.2-.57-.28l-.21-.12c-.94,1.89-2.14,3.39-3.61,4.48-1.47,1.09-3.06,1.64-4.79,1.65-.16,0-.29-.05-.4-.16-.11-.11-.16-.24-.16-.4s.05-.29.16-.39c.11-.1.24-.16.4-.16,1.44,0,2.78-.45,4.02-1.34,1.24-.88,2.29-2.11,3.13-3.67-.3.12-.6.21-.9.29-.3.07-.64.13-1.03.16-.39.03-.77.02-1.13-.03-.37-.05-.75-.17-1.16-.36-.41-.18-.79-.43-1.15-.74-.36-.31-.71-.72-1.05-1.25-.34-.52-.65-1.13-.93-1.82.95-.39,1.84-.63,2.67-.71.83-.08,1.53-.05,2.09.09.56.15,1.08.38,1.55.7s.84.64,1.1.96c.26.32.5.66.7,1.02.44-1.09.77-2.3.98-3.63-.06,0-.13.02-.22.03-.09.01-.28.02-.58.03-.29,0-.58,0-.87,0-.28-.01-.62-.05-1.02-.12-.39-.07-.76-.17-1.1-.29-.34-.12-.69-.3-1.05-.53-.36-.23-.67-.5-.93-.81-.27-.31-.49-.7-.68-1.18-.19-.48-.31-1.01-.36-1.59.58-.23,1.14-.38,1.66-.45.53-.07.99-.07,1.4.01.41.08.79.2,1.15.37.36.17.66.38.92.62.25.25.49.5.7.76.21.26.39.52.52.79.14.26.25.49.34.7.09.2.16.37.2.49l.05.2c.1-1.01.15-1.82.15-2.43-.07-.05-.16-.12-.27-.2-.11-.08-.32-.27-.61-.55-.29-.29-.56-.58-.79-.89-.23-.31-.46-.69-.67-1.16-.22-.47-.35-.93-.41-1.4-.06-.47,0-1,.15-1.58.16-.59.45-1.16.87-1.73.61.21,1.14.46,1.59.77.45.3.8.62,1.05.95.25.33.45.69.6,1.06.15.37.23.74.26,1.11.02.37.02.72,0,1.07-.02.34-.08.66-.16.95-.08.29-.16.55-.24.77-.07.22-.15.4-.21.52l-.09.19s.01.25.01.63,0,.68-.01.89c.02-.06.07-.13.12-.23.06-.1.18-.27.38-.54.2-.26.41-.5.63-.72.22-.22.52-.45.88-.69.37-.24.75-.43,1.14-.55.39-.13.86-.19,1.4-.18.54,0,1.09.11,1.65.3-.02.65-.11,1.24-.27,1.76-.16.53-.37.96-.62,1.3-.25.34-.54.64-.87.89-.32.25-.66.44-1.02.57-.35.12-.7.22-1.05.3-.35.07-.68.11-1,.12-.32,0-.6,0-.84-.01-.25-.01-.44-.03-.58-.06l-.21-.04c-.19,1.22-.49,2.4-.91,3.53.05-.06.12-.13.22-.23.1-.1.31-.27.62-.51.31-.24.63-.46.97-.65.33-.19.75-.37,1.24-.52.49-.16.98-.24,1.46-.25.48,0,1.02.09,1.61.29.59.2,1.16.53,1.71.97Z"/>
  </g>
</svg>