<?xml version="1.0" encoding="UTF-8"?>
<svg id="Calque_2" data-name="Calque 2" xmlns="http://www.w3.org/2000/svg" viewBox="0 0 292.08 46.07">
  <defs>
    <style>
      .cls-1 {
        fill: #e25f3f;
      }

      .cls-2 {
        fill: #bf2a18;
      }

      .cls-3 {
        fill: #cf4e34;
      }

      .cls-4 {
        fill: #7f1c14;
      }

      .cls-5 {
        fill: #e67854;
      }

      .cls-6 {
        fill: #9e2319;
      }

      .cls-7 {
        fill: #6f180e;
      }
    </style>
  </defs>
  <g id="Calque_1-2" data-name="Calque 1">
    <g>
      <g>
        <polygon class="cls-2" points="292.08 17.13 292.08 5.9 261.14 5.9 261.14 46.07 292.08 46.07 292.08 34.84 283.64 34.84 283.64 17.13 292.08 17.13"/>
        <polygon class="cls-2" points="0 5.9 0 17.13 8.45 17.13 8.45 34.84 0 34.84 0 46.07 30.94 46.07 30.94 5.9 0 5.9"/>
        <rect class="cls-6" x="261.14" y="5.9" width="6.56" height="40.18" transform="translate(528.84 51.97) rotate(180)"/>
        <rect class="cls-6" x="24.18" y="5.9" width="6.56" height="40.18" transform="translate(54.92 51.97) rotate(180)"/>
        <polygon class="cls-4" points="30.74 46.07 30.74 35.24 46.65 35.24 30.74 46.07"/>
        <polygon class="cls-4" points="261.14 46.07 245.23 35.24 261.14 35.24 261.14 46.07"/>
        <rect class="cls-1" x="30.74" width="230.4" height="35.24"/>
        <rect class="cls-3" x="30.74" y="29.35" width="230.4" height="5.9"/>
        <rect class="cls-5" x="30.74" width="230.4" height="5.9"/>
      </g>
      <g>
        <path class="cls-7" d="m82.39,24.36h-9.3v-1.03h-1.03v-8.26h1.03v-1.03h9.3v2.07h-6.2v6.2h2.07v-2.07h-1.03v-2.07h5.16v6.2Z"/>
        <path class="cls-7" d="m94.62,24.36h-4.13v-4.13h-2.07v4.13h-4.13v-9.3h1.03v-1.03h8.26v1.03h1.03v9.3Zm-4.13-6.2v-2.07h-2.07v2.07h2.07Z"/>
        <path class="cls-7" d="m113.09,24.36h-4.13v-8.26h-2.07v8.26h-4.13v-8.26h-2.07v8.26h-4.13v-10.33h15.49v1.03h1.03v9.3Z"/>
        <path class="cls-7" d="m125.36,24.36h-9.29v-1.03h-1.03v-8.26h1.03v-1.03h9.29v2.07h-6.2v2.07h3.1v2.07h-3.1v2.07h6.2v2.07Z"/>
        <path class="cls-7" d="m143.7,23.33h-1.03v1.03h-9.3v-10.33h9.3v1.03h1.03v8.26Zm-4.13-1.03v-6.2h-2.07v6.2h2.07Z"/>
        <path class="cls-7" d="m155.97,24.36h-9.29v-1.03h-1.03v-8.26h1.03v-1.03h9.29v2.07h-6.2v2.07h3.1v2.07h-3.1v2.07h6.2v2.07Z"/>
        <path class="cls-7" d="m168.24,23.33h-1.03v1.03h-9.3v-2.07h6.2v-2.07h-5.16v-1.03h-1.03v-4.13h1.03v-1.03h9.29v2.07h-6.2v2.07h5.16v1.03h1.03v4.13Z"/>
        <path class="cls-7" d="m174.32,24.36h-4.13v-10.33h4.13v10.33Z"/>
        <path class="cls-7" d="m186.59,24.36h-9.29v-1.03h-1.03v-8.26h1.03v-1.03h9.29v2.07h-6.2v6.2h2.07v-2.07h-1.03v-2.07h5.16v6.2Z"/>
        <path class="cls-7" d="m198.86,24.36h-4.13v-8.26h-2.07v8.26h-4.13v-10.33h9.3v1.03h1.03v9.3Z"/>
        <path class="cls-7" d="m211.13,24.36h-9.29v-1.03h-1.03v-8.26h1.03v-1.03h9.29v2.07h-6.2v2.07h3.1v2.07h-3.1v2.07h6.2v2.07Z"/>
        <path class="cls-7" d="m223.4,24.36h-4.13v-4.13h-2.07v4.13h-4.13v-10.33h9.3v1.03h1.03v3.1h-1.03v2.07h1.03v4.13Zm-4.13-6.2v-2.07h-2.07v2.07h2.07Z"/>
      </g>
    </g>
  </g>
</svg>