<?xml version="1.0" encoding="UTF-8"?>
<svg id="Calque_2" data-name="Calque 2" xmlns="http://www.w3.org/2000/svg" viewBox="0 0 19.86 18.31">
  <defs>
    <style>
      .cls-1 {
        fill: #575751;
      }
    </style>
  </defs>
  <g id="Calque_1-2" data-name="Calque 1">
    <path class="cls-1" d="m18.85,3.66c.3.12.54.29.7.51.32.45.39.97.21,1.54l-3.28,10.8c-.15.51-.46.94-.91,1.28-.46.35-.94.52-1.46.52H3.11c-.61,0-1.2-.21-1.77-.64-.57-.43-.96-.95-1.19-1.57-.19-.53-.2-1.04-.02-1.51,0-.03.01-.14.04-.32.02-.18.04-.33.05-.44,0-.06,0-.15-.04-.26-.03-.11-.04-.18-.04-.23.02-.09.05-.17.1-.25.05-.08.11-.17.2-.28.08-.11.15-.2.2-.28.18-.3.36-.67.54-1.09.17-.43.29-.79.36-1.09.02-.08.03-.2,0-.36-.02-.16-.02-.27,0-.33.02-.09.09-.2.2-.33.11-.14.18-.23.2-.27.17-.29.33-.65.5-1.1.17-.45.27-.8.3-1.07,0-.07,0-.2-.03-.38-.03-.18-.03-.29,0-.33.03-.1.12-.22.26-.36.14-.14.23-.23.26-.27.15-.21.32-.54.51-1.01.19-.47.3-.85.33-1.15,0-.06,0-.16-.04-.3-.03-.14-.04-.24-.02-.32.02-.06.05-.14.11-.21.06-.08.13-.17.21-.27.09-.1.16-.19.2-.25.06-.1.13-.22.2-.36.07-.15.13-.29.18-.42.05-.13.12-.27.19-.43.08-.16.15-.28.23-.38.08-.1.18-.19.32-.28.13-.09.27-.13.43-.14.16,0,.34.02.57.07v.04c.29-.07.49-.11.6-.11h9.07c.59,0,1.04.22,1.36.67.32.45.39.96.21,1.55l-3.27,10.8c-.29.95-.57,1.56-.85,1.83-.28.27-.79.41-1.53.41H1.87c-.21,0-.37.06-.45.18-.09.13-.09.3-.01.51.19.56.76.83,1.72.83h11.01c.23,0,.45-.06.67-.18.21-.12.35-.29.42-.49l3.58-11.77c.06-.17.08-.4.06-.68h0Zm-12.97,3.59c-.03.1-.02.19.02.27.05.08.13.11.24.11h7.25c.1,0,.2-.04.3-.11.1-.08.16-.16.2-.27l.25-.76c.03-.1.02-.19-.02-.27-.05-.08-.13-.11-.24-.11h-7.25c-.1,0-.2.04-.3.11-.1.08-.17.17-.2.27l-.25.76Zm.99-3.05c-.03.1-.02.19.02.27.05.08.13.11.24.11h7.25c.1,0,.2-.04.3-.11.1-.08.16-.16.2-.27l.25-.76c.03-.1.02-.19-.02-.27-.05-.08-.13-.11-.24-.11h-7.25c-.1,0-.2.04-.3.11-.1.08-.17.17-.2.27l-.25.76Z"/>
  </g>
</svg>