<?xml version="1.0" encoding="UTF-8"?>
<svg id="Calque_2" data-name="Calque 2" xmlns="http://www.w3.org/2000/svg" viewBox="0 0 24.01 12.81">
  <defs>
    <style>
      .cls-1 {
        fill: #575751;
      }
    </style>
  </defs>
  <g id="Calque_1-2" data-name="Calque 1">
    <path class="cls-1" d="m17.61,0c1.77,0,3.28.63,4.53,1.88,1.25,1.25,1.88,2.76,1.88,4.53s-.63,3.28-1.88,4.53c-1.25,1.25-2.76,1.88-4.53,1.88-1.6,0-3.01-.53-4.23-1.6h-2.75c-1.22,1.07-2.63,1.6-4.23,1.6-1.77,0-3.28-.63-4.53-1.88s-1.88-2.76-1.88-4.53S.63,3.13,1.88,1.88,4.64,0,6.4,0h11.21Zm-7.2,7.2v-1.6c0-.12-.04-.21-.11-.29-.08-.08-.17-.11-.29-.11h-2.4v-2.4c0-.12-.04-.21-.11-.29-.08-.08-.17-.11-.29-.11h-1.6c-.12,0-.21.04-.29.11-.08.08-.11.17-.11.29v2.4h-2.4c-.12,0-.21.04-.29.11s-.11.17-.11.29v1.6c0,.12.04.21.11.29s.17.11.29.11h2.4v2.4c0,.12.04.21.11.29s.17.11.29.11h1.6c.12,0,.21-.04.29-.11s.11-.17.11-.29v-2.4h2.4c.12,0,.21-.04.29-.11.08-.08.11-.17.11-.29Zm6.74,1.93c.31-.31.47-.69.47-1.13s-.16-.82-.47-1.13c-.31-.31-.69-.47-1.13-.47s-.82.16-1.13.47c-.31.31-.47.69-.47,1.13s.16.82.47,1.13c.31.31.69.47,1.13.47s.82-.16,1.13-.47Zm3.2-3.2c.31-.31.47-.69.47-1.13s-.16-.82-.47-1.13c-.31-.31-.69-.47-1.13-.47s-.82.16-1.13.47c-.31.31-.47.69-.47,1.13s.16.82.47,1.13c.31.31.69.47,1.13.47s.82-.16,1.13-.47Z"/>
  </g>
</svg>