<?xml version="1.0" encoding="UTF-8"?>
<svg id="Calque_2" data-name="Calque 2" xmlns="http://www.w3.org/2000/svg" viewBox="0 0 19.14 20.74">
  <defs>
    <style>
      .cls-1 {
        fill: #575751;
      }
    </style>
  </defs>
  <g id="Calque_1-2" data-name="Calque 1">
    <path class="cls-1" d="m19.14,1.2v13.96c0,.42-.14.79-.42,1.11-.28.32-.64.58-1.07.75-.43.18-.86.31-1.29.4-.43.09-.83.13-1.2.13s-.77-.04-1.2-.13c-.43-.09-.86-.22-1.29-.4-.43-.18-.79-.43-1.07-.75-.28-.32-.42-.69-.42-1.11s.14-.79.42-1.11c.28-.32.64-.58,1.07-.75.43-.18.86-.31,1.29-.4.43-.09.83-.13,1.2-.13.87,0,1.67.16,2.39.49v-6.69l-9.57,2.95v8.84c0,.42-.14.79-.42,1.11-.28.32-.64.58-1.07.75-.43.18-.86.31-1.29.4-.43.09-.83.13-1.2.13s-.77-.04-1.2-.13c-.43-.09-.86-.22-1.29-.4-.43-.18-.79-.43-1.07-.75-.28-.32-.42-.69-.42-1.11s.14-.79.42-1.11c.28-.32.64-.58,1.07-.75.43-.18.86-.31,1.29-.4.43-.09.83-.13,1.2-.13.87,0,1.67.16,2.39.49V4.39c0-.26.08-.49.24-.7.16-.21.36-.36.61-.44L17.6.05c.1-.03.22-.05.35-.05.33,0,.61.12.85.35.23.23.35.52.35.85Z"/>
  </g>
</svg>