<?xml version="1.0" encoding="UTF-8"?>
<svg id="Calque_1" data-name="Calque 1" xmlns="http://www.w3.org/2000/svg" viewBox="0 0 50 50">
  <defs>
    <style>
      .cls-1, .cls-2, .cls-3 {
        stroke-width: 0px;
      }

      .cls-2, .cls-3 {
        fill: #fff;
      }

      .cls-3 {
        opacity: .6;
      }
    </style>
  </defs>
  <path class="cls-1" d="M39.08,25.68s-8.79-3.58-2.92-8.95c5.69,1.3,7.24,12.96,7.67,19.27,2.01-3.37,3.16-7.3,3.16-11.5,0-12.43-10.07-22.5-22.5-22.5S2,12.07,2,24.5c0,.99.07,1.96.19,2.91C6.82,19.54,24.41,6,24.41,6v14.51l-13.71,6.97s3.92,3.58-3.92,5.37c-1.32.12-2.37.1-3.2-.04,3.31,8.31,11.42,14.2,20.91,14.2,6.42,0,12.2-2.69,16.3-7H10.7s33.25-3.58,28.38-14.32ZM28.33,27.47c2.16,0,3.92,1.2,3.92,2.68s-1.75,2.68-3.92,2.68-3.92-1.2-3.92-2.68,1.75-2.68,3.92-2.68ZM18.54,27.47c2.16,0,3.92,1.2,3.92,2.68s-1.75,2.68-3.92,2.68-3.92-1.2-3.92-2.68,1.75-2.68,3.92-2.68Z"/>
  <path class="cls-2" d="M6.79,32.84c7.83-1.79,3.92-5.37,3.92-5.37l13.71-6.97V6S6.82,19.54,2.19,27.41c.24,1.88.72,3.69,1.4,5.39.83.14,1.88.16,3.2.04Z"/>
  <path class="cls-3" d="M6.79,32.84c7.83-1.79,3.92-5.37,3.92-5.37l13.71-6.97V6S6.82,19.54,2.19,27.41c.24,1.88.72,3.69,1.4,5.39.83.14,1.88.16,3.2.04Z"/>
  <path class="cls-2" d="M18.54,32.84c2.16,0,3.92-1.2,3.92-2.68s-1.75-2.68-3.92-2.68-3.92,1.2-3.92,2.68,1.75,2.68,3.92,2.68Z"/>
  <path class="cls-3" d="M18.54,32.84c2.16,0,3.92-1.2,3.92-2.68s-1.75-2.68-3.92-2.68-3.92,1.2-3.92,2.68,1.75,2.68,3.92,2.68Z"/>
  <ellipse class="cls-2" cx="28.33" cy="30.16" rx="3.92" ry="2.68"/>
  <ellipse class="cls-3" cx="28.33" cy="30.16" rx="3.92" ry="2.68"/>
  <path class="cls-2" d="M36.17,16.74c-5.88,5.37,2.92,8.95,2.92,8.95,4.88,10.74-28.38,14.32-28.38,14.32h30.1c1.15-1.21,2.17-2.55,3.04-4-.43-6.3-1.98-17.97-7.67-19.27Z"/>
  <path class="cls-3" d="M36.17,16.74c-5.88,5.37,2.92,8.95,2.92,8.95,4.88,10.74-28.38,14.32-28.38,14.32h30.1c1.15-1.21,2.17-2.55,3.04-4-.43-6.3-1.98-17.97-7.67-19.27Z"/>
</svg>