<svg width="64" height="64" viewBox="0 0 64 64" fill="none" xmlns="http://www.w3.org/2000/svg">
<path d="M31.56 2.63C23.9684 2.55285 16.6568 5.49304 11.232 10.8044C5.80727 16.1157 2.71327 23.3636 2.63 30.9551C2.65925 36.9546 4.5892 42.7904 8.14265 47.6244C11.6961 52.4584 16.6902 56.0419 22.4076 57.86C23.8541 58.123 24.3801 57.2551 24.3801 56.4924C24.3801 55.7297 24.3801 54.0465 24.3801 51.6795C16.3323 53.389 14.6228 47.8923 14.6228 47.8923C14.0871 46.1667 12.9481 44.6917 11.4142 43.7369C8.7842 42.0011 11.6246 42.0274 11.6246 42.0274C12.5337 42.1489 13.4034 42.4747 14.1686 42.9803C14.9338 43.4859 15.5746 44.1581 16.043 44.9467C16.8592 46.362 18.1984 47.4002 19.7724 47.838C21.3464 48.2757 23.0293 48.078 24.459 47.2874C24.606 45.8472 25.2582 44.5055 26.3 43.5002C19.8828 42.7901 13.15 40.3705 13.15 29.5086C13.0926 26.6752 14.1395 23.9307 16.0693 21.8553C15.1904 19.4227 15.2942 16.7434 16.3586 14.3861C16.3586 14.3861 18.8045 13.6234 24.2486 17.2791C28.9876 16.0163 33.9746 16.0163 38.7136 17.2791C44.2366 13.6234 46.6036 14.3861 46.6036 14.3861C47.668 16.7434 47.7718 19.4227 46.8929 21.8553C48.8675 23.8926 49.9712 26.6188 49.97 29.456C49.97 40.3442 43.1846 42.7375 36.82 43.4476C37.5169 44.1242 38.0552 44.9468 38.3963 45.8563C38.7374 46.7658 38.8727 47.7396 38.7925 48.7076V56.4661C38.7925 56.4661 39.3185 58.123 40.765 57.8337C46.4662 56.0043 51.4435 52.42 54.9859 47.5928C58.5284 42.7657 60.4548 36.9425 60.49 30.9551C60.4067 23.3636 57.3127 16.1157 51.888 10.8044C46.4632 5.49304 39.1516 2.55285 31.56 2.63Z" fill="#231F20"/>
</svg>
