<svg width="66" height="53" viewBox="0 0 66 53" fill="none" xmlns="http://www.w3.org/2000/svg">
<path d="M59.1323 0H6.57026C2.94676 0 0 2.94676 0 6.57026V45.9918C0 49.6153 2.94676 52.5621 6.57026 52.5621H59.1323C62.7558 52.5621 65.7026 49.6153 65.7026 45.9918V6.57026C65.7026 2.94676 62.7558 0 59.1323 0ZM59.1323 6.57026V8.24896L32.8513 28.6923L6.57026 8.25224V6.57026H59.1323ZM6.57026 45.9918V16.5702L30.8342 35.4432C31.4255 35.9065 32.1384 36.1364 32.8513 36.1364C33.5642 36.1364 34.277 35.9065 34.8684 35.4432L59.1323 16.5702L59.1389 45.9918H6.57026Z" fill="black"/>
</svg>
