<?xml version="1.0" encoding="UTF-8"?>
<svg id="Calque_1" data-name="Calque 1" xmlns="http://www.w3.org/2000/svg" viewBox="0 0 1400 1000">
  <defs>
    <style>
      .cls-1, .cls-2, .cls-3 {
        stroke-width: 0px;
      }

      .cls-2, .cls-4 {
        fill: #d84e4e;
      }

      .cls-3 {
        fill: #fff;
      }

      .cls-4 {
        stroke: #000;
        stroke-miterlimit: 10;
        stroke-width: 8px;
      }
    </style>
  </defs>
  <rect class="cls-3" width="1400" height="999"/>
  <path class="cls-1" d="M370.31,879.99h655.26s20.34,11.61,0,24.27c-20.34-1.35-655.26,0-655.26,0,0,0-18.08-9.91,0-24.27Z"/>
  <path class="cls-1" d="M486.32,879.99l-.77-718.17s4.52-8.21,18.08-6.16c13.56,2.05,9.04,4.1,9.04,4.1l.72,720.22h-27.07Z"/>
  <path class="cls-1" d="M492.09,155.34l406.95.33s9.04,0,9.04,10.26v95.87s-12.84-2.62-25.62,0l-1.49-79.46v-6.16l-388.88,1.44v-22.29Z"/>
  <polygon class="cls-2" points="880.87 400.67 880.96 600.93 905.82 600.93 908.08 399.84 880.87 400.67"/>
  <g>
    <path class="cls-2" d="M880.96,598.88l-110.72,135.43s-2.26,24.62,24.85,10.26c13.56-14.36,99.42-123.12,99.42-123.12v-22.57h-13.56"/>
    <path class="cls-2" d="M905.82,598.88l112.98,135.43s2.26,24.62-24.85,10.26c-13.56-14.36-99.42-123.12-99.42-123.12v-22.57h13.56"/>
  </g>
  <path class="cls-2" d="M880.88,424.9l-110.64,93.95s-4.52,20.52,20.34,12.31c15.82-12.31,90.29-73.08,90.29-73.08v-33.18Z"/>
  <path class="cls-2" d="M908.49,425.07l110.64,93.95s4.52,20.52-20.34,12.31c-15.82-12.31-90.29-73.08-90.29-73.08v-33.18Z"/>
  <g>
    <ellipse class="cls-2" cx="896.78" cy="331.1" rx="85.86" ry="70.79"/>
    <path class="cls-4" d="M857.11,357.91c.44-2.03,29.89,32.14,78.89.09"/>
    <ellipse class="cls-1" cx="860.63" cy="311.61" rx="10.17" ry="9.23"/>
    <ellipse class="cls-1" cx="920.5" cy="307.51" rx="16.95" ry="12.31"/>
  </g>
</svg>