<?xml version="1.0" encoding="UTF-8"?>
<svg id="Calque_1" data-name="Calque 1" xmlns="http://www.w3.org/2000/svg" viewBox="0 0 350 283">
  <defs>
    <style>
      .cls-1 {
        fill: #bba4bc;
        stroke-width: 0px;
      }

      .cls-2 {
        fill: #f2cbf2;
      }

      .cls-2, .cls-3, .cls-4 {
        stroke: #000;
        stroke-miterlimit: 10;
        stroke-width: 2px;
      }

      .cls-3 {
        fill: #fff;
      }

      .cls-4 {
        fill: #d2b2d3;
      }
    </style>
  </defs>
  <path class="cls-4" d="M127.5,205.5l-22,42s54,48,137-3c-7-10-30-56-30-56l-78,2-7,15Z"/>
  <path id="ombre" class="cls-1" d="M128.45,207.5s17.6,4.31,20.82,13.65l8.81,7.08,21.54-8.77-48.09-16.98-3.08,5.01Z"/>
  <polygon class="cls-1" points="172.06 222.55 184.68 227.34 205 226 219 205 172.06 222.55"/>
  <path class="cls-4" d="M101.5,121.5s8,42,7,48-3.46,29.95-3.46,29.95c0,0-.37,7.93,3.54,7.49s13.91-2.44,20.91-2.44,16,3,20,7,10,10,10,11,12-6,16-4,10.86,4.1,10.86,4.1h16.68s46.46-55.1,51.46-54.1c0-3-7-95-1-113,1-2,0-16,0-16H105.5s-7,68-4,82Z"/>
  <path class="cls-2" d="M142.5,181.5c-1.19,3.78,18.93,22.21,33,20,2-3,7-4,7-4,0,0,7,3,13,2s17-25,17-25l-70,7Z"/>
  <path class="cls-2" d="M141.5,181.5s17-12,20-12,9,2,12,2c3-1,5-3,5-3,0,0,33,3,35,5-2,2-18,16-35,14-5.69,1.9-28.5,1.99-35.94-4.84-.4-.37-.76-.75-1.06-1.16Z"/>
  <path class="cls-4" d="M151.5,141.5s-6.32,1-6.16,4,3.16,6,8.16,4,7.29-2,7.29-2c0,0,7.71,6,11.71,4s11.5-6.61,11.5-6.61c0,0,14.99,4.61,13.74.61s-.24-5-.24-5"/>
  <path class="cls-2" d="M175.5,128.5s.16-49.36-3.92-53.18"/>
  <path class="cls-3" d="M127.5,97.5s9,25,29,10h-6s9.74-9,8.37-10-30.98,0-30.98,0"/>
  <path class="cls-2" d="M129.5,93.5s8,13,30,2c2-4,3-9-13-10-8,1-14,.3-17,7.65"/>
  <path class="cls-2" d="M151.5,113.5s-4.5,2.85-8.25.93-17.75-8.93-17.75-8.93c0,0-6,6,5,8s8,5,21,0Z"/>
  <circle class="cls-2" cx="143.5" cy="104.5" r="5"/>
  <path class="cls-2" d="M161.5,70.5l7-8h-6.44s-14.56-8-22.56-8c-6,4-12,10-17,27,0,0,18-13,39-11Z"/>
  <path class="cls-2" d="M190.5,61.5l4,12s.64-2.85,3.32-3.93,24.68-8.07,26.68-7.07,12.87,8,13.44,11c.56,3,8.56-19-10.44-21-10,0-35,6-37,9Z"/>
  <path class="cls-2" d="M208.5,127.5s19-3,20-7c-4,4-22,12-22,12,0,0,23.68-12,26.84-12-1.68,3-16.84,16-16.84,16h4.59"/>
  <path class="cls-3" d="M187.5,94.5s10,15,22,12,13-11.07,13-11.07v-5.93l-37-1,2,6Z"/>
  <path class="cls-2" d="M191.5,88.5s17,8,29,1c1-4,2-5,2-5,0,0-6-6-15-5s-13,1-16,9"/>
  <path class="cls-2" d="M190.19,104.5s14.31,17,34.31,3c0,0-19.62,3-34.31-3Z"/>
  <circle class="cls-2" cx="207.5" cy="99.5" r="5"/>
  <polygon class="cls-2" points="122.5 180.5 122.71 179.87 131.5 153.5 129.34 180.5 118.5 162.5 138.5 167.5 122.5 180.5"/>
  <path class="cls-2" d="M183.5,207.5s-19,0-18,2,14,2,16,1"/>
  <path class="cls-2" d="M176.5,47.5s-75-13-74,1,5.36,79.1,11.18,82.55c0,0,6.82,85.45-6.18,88.45s-26,1-26,1c0,0-11.68-2.69-8.84-9.34s3.84-2.66,3.84-2.66l18,4s-17-69-10-77-22-106-4-106,53-12,53-12c0,0,27.6-8,33.8,0s9.2,30,9.2,30Z"/>
  <path class="cls-2" d="M176.5,47.5s75.4-13.29,74.4.71-5.36,79.1-11.18,82.55c0,0-18.22,92.74-5.22,95.74s27-3,27-3c0,0,12.84-19.34,10-26-2.84-6.66-14,12-14,12h-14s32.4-66.29,25.4-74.29c-7-8,22-106,4-106s-53-12-53-12c0,0-52.19-8.71-58.4-.71s15,31,15,31Z"/>
  <path class="cls-2" d="M122.57,227.34s-3.07,15.97-4.07,17.06,9-22.9,14-18.9,1,15,3,15"/>
  <path class="cls-2" d="M141.5,242.11s-7.26,16.61,7.37,0"/>
  <path class="cls-2" d="M75.21,56.41s10.29-9.91,6.07-16.91,19.48-12.78,19.48-12.78c0,0-12.25,15.78-9.25,21.78s-15.33,16.18-15.33,16.18"/>
  <path class="cls-2" d="M102.78,52.5s-15.41,8-13.85,15.5-12.16,1.07-12.16,1.07"/>
  <path class="cls-2" d="M104.24,71.64s-3.02,16.61-6.88,20.74,1.53,14.53,1.53,14.53c0,0-1.39,11.6-4.39,11.6s-2,15-2,15l-9,18"/>
  <path class="cls-2" d="M87.98,71.18s5.08,6.32,1.8,17.32,1.72,14,1.72,14c0,0,4.79,8.06,1.39,10.53s-8.69,1.9-8.69,1.9"/>
  <path class="cls-2" d="M98.23,110.87s8.74,8.73,6,20.18,9.94,7.25,9.94,7.25"/>
  <path class="cls-2" d="M127.5,19.45s-5,14.05-16,17.05-17.63.94-17.63.94"/>
  <path class="cls-2" d="M138.5,42.7s-5-15.36-16-14.28"/>
  <path class="cls-2" d="M207,24.35s8,6.65,20,6.65,17.17,7.13,17.17,7.13l-1.17,3.87"/>
  <line class="cls-2" x1="160.41" y1="21.09" x2="133.29" y2="33.44"/>
  <path class="cls-2" d="M92.5,133.5s10.47,8.26,5.73,21.63-7.73,11.37-7.73,11.37c0,0-7,6,6,12s18.82,7.53,18.82,7.53"/>
  <path class="cls-2" d="M98.23,155.13s8.63,9.22,15.95,2.3"/>
  <path class="cls-2" d="M100.75,180.42s.88,17.83-9.18,19.46"/>
  <path class="cls-2" d="M155.14,172.51s.05,13.96-5.14,13.49"/>
  <path class="cls-2" d="M165.5,170.5s-.85,17-3.93,18"/>
  <path class="cls-2" d="M173.5,171.5s2.74,16.18-3.63,16.59"/>
  <path class="cls-2" d="M171.58,13.35s2.95,18.09,17.19,13.37,9.05,11.41,9.05,11.41l-6.32,7.05"/>
  <path class="cls-2" d="M198.31,29.27s8.69-.05,9.19-7.16,8.82-5.46,8.82-5.46"/>
  <path class="cls-2" d="M240.77,35.02s11.95-3.73,10.59-8.88"/>
  <path class="cls-2" d="M248.9,30.99s4.1,7.01,12.1,8.01,9,8,9,8c0,0,2,13,4,15s3.18,2.75,3.18,2.75"/>
  <path class="cls-2" d="M258.62,38.5s-1.61,20.69-8.62,22.1"/>
  <path class="cls-2" d="M266.14,40.91s-5.14,6.09-4.14,10.09-2,7-2,7c0,0-3,8-1,10s-5,12-5,12c0,0-3,5-6,5"/>
  <path class="cls-2" d="M255.34,77.98s.74,8.94,7.7,8.98,5.64,6.13,5.64,6.13l2.85,6.83"/>
  <path class="cls-2" d="M247.72,87.47s8.9,7.53,6.59,12.03,7.48,7.4,7.48,7.4l7.86,4.67"/>
  <path class="cls-2" d="M245.85,104.5s3.77,13.39,8.46,17.95,1.03,16.6,1.03,16.6c0,0,.73,11.95,6.2,14.45s4.6,2.4,4.6,2.4"/>
  <path class="cls-2" d="M252.51,120.23s-8.09,10.77-11.3,8.27"/>
  <path class="cls-2" d="M256.7,130.2s-.98,16.29-9.84,18.54-1.01-9.7-1.01-9.7"/>
  <path class="cls-2" d="M235.7,153.5s-1.66,17.71,9.32,15.1,7.49-8.6,7.49-8.6l-4.79-1.39"/>
  <path class="cls-2" d="M238,171s-6.4,8,.3,9.5,12.7-4.5,12.7-4.5c0,0,4.57-10,9.78-5.5"/>
  <path class="cls-2" d="M231.33,185.33s3.67,10.67,9.67,6.67,10.03,1.37,10.03,1.37"/>
  <path class="cls-2" d="M238.64,192.88s3.36,6.12-1.64,11.12-7.16,6.71-7.16,6.71"/>
</svg>