<svg width="68" height="67" viewBox="0 0 68 67" fill="none" xmlns="http://www.w3.org/2000/svg">
<path d="M42.6942 62.4766C36.5064 64.5592 29.8175 64.6252 23.5899 62.6651C17.3623 60.7049 11.917 56.8198 8.03752 51.5686C4.15805 46.3174 2.0444 39.9709 2.00069 33.4422C1.95699 26.9136 3.98548 20.5394 7.79431 15.2367C11.6031 9.93404 16.9959 5.97633 23.1967 3.93303C29.3976 1.88973 36.0867 1.86617 42.3018 3.86574C48.5169 5.86532 53.9374 9.78494 57.7835 15.0606C61.6296 20.3363 63.7029 26.6961 63.7052 33.2249C63.6055 35.7275 63.3025 38.2178 62.7992 40.6712" stroke="black" stroke-width="3.72316"/>
<path d="M40.1252 56.7429C37.9056 59.2646 35.4724 61.5899 32.8526 63.6928" stroke="black" stroke-width="3.72316"/>
<path d="M32.8526 2.01241C41.1807 9.28861 46.3339 19.5326 47.2116 30.5567C47.3918 32.5578 47.4291 34.5693 47.3233 36.5758" stroke="black" stroke-width="3.72316"/>
<path d="M32.8526 2.01241C28.334 5.95087 24.704 10.8045 22.2028 16.2518C19.7017 21.6991 18.3866 27.6157 18.3447 33.6096C18.3447 53.7147 27.3796 59.6718 32.8154 63.6928" stroke="black" stroke-width="3.72316"/>
<path d="M6.0086 18.022H59.8455" stroke="black" stroke-width="3.72316"/>
<path d="M32.8526 2V63.6928" stroke="black" stroke-width="3.72316"/>
<path d="M6.85252 49.7682H39.1075" stroke="black" stroke-width="3.72316"/>
<path d="M2 33.6096L63.7052 32.8526" stroke="black" stroke-width="3.72316"/>
<path d="M59.6221 64.0651L65.12 58.5548L55.1916 48.6264L60.8384 45.0149C60.9207 44.9663 60.9862 44.8938 61.0264 44.8071C61.0665 44.7203 61.0794 44.6235 61.0633 44.5292C61.0471 44.435 61.0027 44.348 60.9359 44.2796C60.8692 44.2111 60.7832 44.1646 60.6894 44.1462L41.7137 39.7032C41.6354 39.6873 41.5543 39.691 41.4777 39.714C41.4011 39.737 41.3314 39.7787 41.2749 39.8352C41.2183 39.8918 41.1767 39.9615 41.1536 40.0381C41.1306 40.1146 41.1269 40.1957 41.1428 40.2741L45.2631 59.6097C45.2829 59.7037 45.3303 59.7897 45.3991 59.8567C45.4679 59.9237 45.5551 59.9687 45.6496 59.986C45.7441 60.0033 45.8416 59.9921 45.9297 59.9539C46.0178 59.9156 46.0925 59.8519 46.1443 59.7711L49.6937 54.1367L59.6221 64.0651Z" stroke="black" stroke-width="3.72316"/>
</svg>
